<svg width="352" height="373" viewBox="0 0 352 373" fill="none" xmlns="http://www.w3.org/2000/svg">
<path fill-rule="evenodd" clip-rule="evenodd" d="M379.457 348.407C371.26 369.452 353.754 391.782 333.212 393.162C303.392 395.164 256.39 403.967 236.549 374.206C232.495 368.125 240.502 364.018 245.465 363.31C253.201 362.205 286.409 371.277 286.409 358.026C286.409 351.782 261.067 354.047 256.361 353.734C237.702 352.49 189.774 345.268 184.048 322.365C183.419 319.85 185.793 316.697 187.019 314.77C195.596 301.294 208.169 312.789 221.361 312.789C223.057 312.789 233.578 313.403 233.578 309.817C233.578 304.3 215.141 298.143 210.794 296.279C193.252 288.761 124.955 286.322 133.527 252.033C139.572 227.857 170.376 241.97 186.69 246.42C188.932 247.031 205.587 254.954 206.832 248.731C208.077 242.503 194.422 232.313 190.321 229.579C171.299 216.897 143.434 202.6 143.433 175.426C143.433 167.199 144.349 155.488 153.339 150.992C177.862 138.731 203.272 172.527 217.398 186.654C220.641 189.896 231.813 205.182 237.87 203.163C242.767 201.531 237.647 183.637 236.55 180.71C233.514 172.617 225.274 133.303 239.327 128.619C251.263 124.64 259.408 127.232 264.946 136.463C277.344 157.126 286.463 241.078 289.094 241.955C295.672 244.148 294.228 176.665 306.676 170.472C317.276 165.198 327.703 179.936 327.836 190.199C328.057 207.466 314.958 287.673 325.477 294.371C336.006 301.075 337.083 249.261 346.146 231.107C348.191 227.01 364.731 223.532 371.19 252.491C378.032 283.165 385.904 331.855 379.457 348.407Z" fill="#F79444"/>
</svg>
