<svg width="16" height="16" viewBox="0 0 16 16" fill="none" xmlns="http://www.w3.org/2000/svg">
<path d="M9.64395 7.99989L14.6606 2.99489C14.8803 2.7752 15.0037 2.47724 15.0037 2.16656C15.0037 1.85587 14.8803 1.55791 14.6606 1.33822C14.4409 1.11854 14.143 0.995117 13.8323 0.995117C13.5216 0.995117 13.2236 1.11854 13.004 1.33822L7.99895 6.35489L2.99395 1.33822C2.77426 1.11854 2.4763 0.995117 2.16562 0.995117C1.85493 0.995117 1.55697 1.11854 1.33729 1.33822C1.1176 1.55791 0.994179 1.85587 0.994179 2.16656C0.994179 2.47724 1.1176 2.7752 1.33729 2.99489L6.35395 7.99989L1.33729 13.0049C1.22794 13.1133 1.14114 13.2424 1.08191 13.3846C1.02268 13.5267 0.992188 13.6792 0.992188 13.8332C0.992188 13.9872 1.02268 14.1397 1.08191 14.2819C1.14114 14.4241 1.22794 14.5531 1.33729 14.6616C1.44574 14.7709 1.57478 14.8577 1.71695 14.9169C1.85912 14.9762 2.01161 15.0067 2.16562 15.0067C2.31963 15.0067 2.47212 14.9762 2.61429 14.9169C2.75646 14.8577 2.8855 14.7709 2.99395 14.6616L7.99895 9.64489L13.004 14.6616C13.1124 14.7709 13.2414 14.8577 13.3836 14.9169C13.5258 14.9762 13.6783 15.0067 13.8323 15.0067C13.9863 15.0067 14.1388 14.9762 14.281 14.9169C14.4231 14.8577 14.5522 14.7709 14.6606 14.6616C14.77 14.5531 14.8568 14.4241 14.916 14.2819C14.9752 14.1397 15.0057 13.9872 15.0057 13.8332C15.0057 13.6792 14.9752 13.5267 14.916 13.3846C14.8568 13.2424 14.77 13.1133 14.6606 13.0049L9.64395 7.99989Z" fill="#E6E6E6"/>
</svg>
