<svg width="747" height="240" viewBox="0 0 747 240" fill="none" xmlns="http://www.w3.org/2000/svg">
<path d="M725.502 256.928C764.63 260.843 760.261 285.574 736.552 309.747C690.962 356.23 628.189 375.765 583.219 378.841C553.942 380.845 534.143 368.729 526.65 342.602C520.908 322.581 528.373 294.086 546.286 264.392C570.793 223.765 614.193 177.698 628.547 154.588C629.156 153.612 629.81 152.259 630.455 150.676C622.057 155.597 612.655 162.525 602.365 169.773C551.337 205.709 491.567 260.006 458.574 278.337C449.691 283.249 392.794 315.664 368.495 318.128C347.154 320.292 333.507 311.11 326.144 300.087C316.96 286.338 314.719 269.732 320.338 251.574C328.817 224.174 363.94 188.943 374.478 175.778C416.918 123.244 462.551 74.2561 505.033 22.3273C522.59 0.866709 539.634 -21.0772 555.58 -44.0824C559.019 -49.0445 574.937 -68.8746 586.013 -89.2149C586.785 -90.63 587.569 -92.2413 588.316 -93.9218C581.676 -91.7068 575.212 -87.8741 568.871 -83.603C542.597 -65.8981 519.475 -38.1719 502.033 -21.099C453.162 26.8291 406.489 78.0632 356.545 125.475C322.039 158.232 286.043 189.255 246.496 216.004C223.69 232.155 161.621 272.552 111.785 285.574C72.842 295.75 40.0449 287.911 19.8951 263.606C3.72664 244.129 1.80562 216.211 10.6965 185.629C23.115 142.918 60.6707 93.5222 76.0029 75.7571C105.226 42.6932 136.685 11.1355 170.487 -18.2982C218.175 -59.8235 269.562 -97.6225 314.112 -141.777C331.925 -159.434 348.94 -177.766 364.367 -197.518C371.964 -207.352 399.945 -240.699 419.659 -274.531C425.048 -283.782 426.157 -296.515 428.519 -305.425C425.34 -304.797 422.058 -303.892 418.817 -303.162C401.4 -299.245 384.332 -291.023 372.563 -284.638C329.51 -261.256 294.053 -239.002 260.868 -213.255C228.386 -188.054 198.252 -159.375 165.068 -123.234L82.1681 -44.0825C31.2838 6.70199 -29.9033 -56.0175 18.0964 -104.379L98.8744 -182.846C136.985 -221.827 171.595 -252.456 208.48 -279.394C245.899 -306.722 285.525 -330.396 333.685 -354.905C354.639 -365.596 387.081 -378.904 417.555 -382.155C446.421 -385.232 473.644 -379.91 494.062 -363.372C512.512 -348.427 520.818 -322.386 511.241 -288.918C497.526 -240.993 442.746 -167.057 430.87 -150.631C406.359 -115.818 377.986 -84.1068 347.626 -53.9732C307.314 -13.963 264.473 24.2168 221.044 61.2185C193.296 84.8608 164.722 107.217 138.977 132.362C130.936 140.117 115.362 156.336 101.827 175.315C94.1134 186.133 86.5623 197.532 82.1681 208.761C80.7337 212.427 79.2729 215.891 78.7667 219.32C77.8432 225.598 83.7655 223.534 89.4851 224.001C101.851 222.669 115.682 218.534 129.38 212.986C163.695 199.087 197.313 177.787 212.305 168.022C249.048 143.104 282.599 114.318 314.466 83.6392C363.803 36.1418 409.257 -15.6858 457.24 -63.9587C480.292 -87.1973 513.005 -126.118 549.139 -145.356C571.074 -157.035 594.334 -162.086 617.918 -157.891C646.995 -152.728 658.283 -135.169 659.745 -112.236C660.503 -100.346 656.855 -85.2001 649.842 -69.6809C637.899 -43.2544 615.942 -14.3475 611.583 -7.83314C595.029 16.9064 577.344 40.5757 559.012 63.6706C519.951 112.882 477.935 159.427 438.487 208.757C477.564 182.476 538.226 128.105 585.463 100.102C610.597 85.2031 633.562 77.2851 650.311 77.43C679.917 77.6876 694.117 91.8353 700.786 109.354C704.272 118.513 705.393 129.72 703.496 141.611C700.773 158.668 691.972 177.755 684.907 188.648C671.885 208.664 636.513 245.774 610.551 281.714C601.997 293.555 585.463 309.747 589.991 315.77C594.519 321.792 679.95 273.452 679.95 273.452C684.891 270.581 692.49 265.611 699.79 262.283C701.562 261.137 703.533 260.114 705.71 259.243C711.513 256.921 721.843 256.562 725.502 256.928Z" fill="white" fill-opacity="0.15"/>
</svg>
