<svg width="180" height="180" viewBox="0 0 180 180" fill="none" xmlns="http://www.w3.org/2000/svg">
<g clip-path="url(#clip0_144_9395)">
<path d="M179.964 138.924C180.109 124.14 174.092 107.215 158.831 102.116C159.213 73.2872 142.251 61.0285 116.12 66.6967C116.981 58.6208 117.328 50.5296 116.021 42.4016C114.117 31.8696 106.817 27.3131 96.4376 29.4128C90.5671 30.3428 92.897 39.2393 98.4705 37.1606C119.947 28.6564 104.852 80.0191 103.801 89.6129C103.397 93.3738 101.367 100.965 102.128 106.252C79.2311 105.338 56.3666 102.72 33.4345 101.77C26.2832 102.053 26.5907 113.01 33.8316 112.783C48.2221 112.247 64.5892 112.819 79.1529 113.201C100.769 113.88 122.624 113.985 144.191 111.953C147.663 111.707 151.479 111.233 154.993 110.924C172.731 114.807 173.541 136.506 172.87 151.349C165.538 150.648 158.214 151.667 150.925 151.555C150.623 151.545 150.204 151.525 149.756 151.5C149.721 151.28 149.684 151.059 149.641 150.837C146.41 128.798 113.585 134.109 111.777 152.837C110.255 153.083 108.727 153.416 107.466 153.397C100.114 153.904 92.676 153.675 85.3254 153.533C82.4138 153.429 78.8119 153.265 75.922 153.043C72.3462 153.317 66.6838 151.367 62.5027 151.69C60.1891 142.197 48.7998 137.373 39.6269 139.761C32.1999 141.289 26.8664 147.5 25.3932 154.64C14.5933 154.415 9.14418 141.395 11.0024 131.612C11.5269 117.014 10.3528 102.782 10.453 88.3717C10.4834 83.6794 10.6592 79.0303 11.0795 74.4496C11.3764 71.3167 8.93791 68.5402 5.78853 68.4419C2.74411 68.3343 0.189669 70.7207 0.090207 73.7655C-0.0855947 78.7562 0.00983 83.7043 0.253163 88.5974C0.970683 102.938 3.06195 117.357 3.39924 131.531C2.54225 142.189 7.30909 154.421 17.7959 158.598C19.2251 159.161 22.2541 159.851 25.0225 159.887C25.1124 161.259 25.3473 162.632 25.7462 163.981C32.4539 181.807 56.851 177.662 62.0531 162.484C66.3146 163.278 72.3109 161.76 75.8358 162.081C79.0369 161.903 85.4649 161.508 88.6612 161.285C93.0746 161.001 103.423 160.108 107.717 160.182C109.137 160.142 110.991 160.404 112.769 160.474C113.77 163.295 115.329 165.936 117.339 168.138C128.099 179.294 146.893 171.35 149.642 157.719C155.886 158.039 162.138 157.379 168.305 157.607C172.238 157.483 178.609 160.453 179.408 154.649C179.817 149.512 180.105 144.291 179.964 138.924ZM132.252 106.19C125.914 106.529 119.581 106.624 113.253 106.548C113.29 105.456 113.111 104.309 112.768 103.209C112.524 100.866 112.597 98.5131 112.738 96.0633C113.142 88.6679 114.27 81.2805 115.248 73.8844C117.07 73.9317 118.887 73.9681 120.705 74.0617C142.103 74.6654 147.096 83.3208 148.798 103.506C148.822 103.734 148.859 103.964 148.902 104.194C148.263 104.34 147.653 104.452 147.095 104.492C142.177 105.281 137.223 105.842 132.252 106.19ZM56.8007 156.801C55.8865 163.482 47.9229 164.881 42.33 164.592C36.8753 164.522 33.2184 160.478 34.1143 155.04C35.5298 142.506 58.641 142.933 56.8007 156.801ZM142.844 159.236C141.062 163.626 136.331 166.418 131.701 166.522C129.035 166.623 126.096 165.797 124.175 163.96C120.752 160.682 119.344 154.289 123.457 150.961C131.348 144.157 147.604 145.231 142.844 159.236Z" fill="white"/>
<path d="M83.054 4.84974C81.4989 3.7674 79.4076 4.35904 78.504 5.98603C76.7603 8.51955 74.8243 11.4095 73.0898 13.9749C67.7666 21.8941 62.4426 29.844 56.6837 37.4178C39.8915 57.9151 40.3635 65.1435 17.8521 44.3471C15.0092 41.9292 11.9449 39.3274 8.77575 37.2732C5.98421 35.3431 2.38156 39.1502 4.57522 41.847C17.7482 62.1438 39.7018 82.8114 55.5783 52.1808L58.274 48.3542C65.8324 37.7808 69.9514 30.9723 76.8128 19.9573C79.114 16.3213 81.4138 12.6918 83.8456 9.15266C84.8182 7.74515 84.4611 5.82234 83.054 4.84974Z" fill="#1951E7"/>
</g>
<defs>
<clipPath id="clip0_144_9395">
<rect width="180" height="180" fill="white"/>
</clipPath>
</defs>
</svg>
