<svg width="58" height="58" viewBox="0 0 58 58" fill="none" xmlns="http://www.w3.org/2000/svg">
<g clip-path="url(#clip0_112_4480)">
<path d="M57.1195 39.3936C55.9887 36.4614 53.5895 33.6723 50.3148 33.2171C49.5195 29.7019 48.9595 25.5882 46.1302 23.0118C43.043 20.4894 38.7096 20.9283 34.9518 21.0444C35.0234 17.7918 35.0964 14.5218 35.2381 11.4569C35.1722 9.2033 31.734 9.2784 31.7812 11.5443C31.8458 14.9308 32.1469 19.7861 32.3374 23.2123C32.4468 25.1457 32.5501 27.0754 32.6281 29.0036C32.6888 30.3736 32.7348 31.7425 32.7717 33.1119C25.4218 32.9936 18.0714 33.136 10.8311 34.1324C9.76292 34.2791 9.75186 35.9606 10.8609 36.0813C18.1434 37.3614 25.4877 36.4008 32.7729 35.7309C35.9525 35.5477 39.3262 35.4722 42.5096 35.4362C44.7943 35.4146 47.1338 35.4232 49.4219 35.5116C50.3086 35.6899 51.5199 35.7706 52.5958 36.9648C54.4638 38.8006 55.3866 41.6672 55.1952 44.2369C54.9713 47.0908 53.6101 48.2763 50.7984 47.8857C49.6782 47.8715 47.4898 47.3634 45.9999 47.6888C44.3652 40.4775 35.2736 42.3829 35.0691 48.9715C34.6358 49.0371 34.207 49.1149 33.8485 49.1035C31.2118 49.2211 28.5689 49.1054 25.9381 48.9896C23.8737 48.9063 21.8022 48.6314 19.7607 48.3805C19.7349 48.3815 19.7109 48.3852 19.6858 48.3871C19.4418 47.468 19.0147 46.5972 18.4125 45.8543C15.5511 42.2473 9.44605 42.8731 8.11429 47.5611C8.00521 47.8611 7.91997 48.1714 7.85708 48.4874C1.6816 48.9347 1.98408 42.0139 2.60515 37.2831C3.16817 31.3424 5.3334 25.2676 3.76874 19.3037C3.02108 17.0781 -0.366714 18.3199 0.529649 20.5102C1.48314 22.9721 1.23964 25.7399 1.07516 28.3809C0.837766 34.4279 -1.75583 43.1275 2.08843 48.3381C3.17393 49.676 4.87957 50.4516 6.53293 50.6982C6.89311 50.7409 7.34958 50.818 7.81711 50.8628C8.01684 52.0773 8.55901 53.2293 9.45825 54.0904C11.7846 56.4703 16.1147 56.9913 18.4595 54.3906C19.0895 53.6478 19.5114 52.7732 19.7352 51.8482C19.7838 51.8501 19.8321 51.8524 19.8828 51.8508C23.8606 51.7306 27.9403 51.4772 31.9079 51.2631C33.1062 51.2098 34.3018 51.2003 35.4942 51.3441C36.1522 53 37.3709 54.4728 39.0797 55.023C41.9411 55.8831 45.2373 53.9432 46.0555 51.1498C46.2142 51.1592 46.3767 51.148 46.5397 51.1112C47.8019 50.832 49.2192 51.056 50.6242 51.0891C57.6639 51.7436 59.2545 44.8133 57.1195 39.3936ZM34.5074 33.1448C34.6083 31.7642 34.6792 30.3824 34.7375 29.0018C34.8045 27.2253 34.8532 25.3808 34.8967 23.5115C44.9162 22.0649 46.4775 24.4393 48.0207 33.536C43.5368 33.4163 39.024 33.2405 34.5074 33.1448ZM17.9492 50.0166C17.8037 54.6239 9.71419 52.8609 10.5684 48.7039C11.1962 43.6885 18.338 45.4545 17.9492 50.0166ZM44.3177 50.1043C44.213 52.2795 41.369 53.8037 39.538 52.7379C38.6134 52.1377 37.9967 50.9632 37.9091 49.8673C37.8056 47.7188 40.2604 45.9426 42.2666 46.5816C43.6218 47.0476 44.3429 48.7286 44.3177 50.1043Z" fill="#A8ABBE"/>
<path d="M24.9702 11.5103C24.8667 8.79105 23.1413 6.50879 21.4124 4.55527C20.7595 3.79632 20.054 3.03346 19.4458 2.25528C18.5289 1.1775 17.0297 2.66245 18.064 3.62965C19.315 5.33795 21.2932 7.31301 21.8976 9.37665C15.664 9.22564 9.38405 9.11714 3.16526 8.8764C0.735222 8.75304 0.765976 12.5121 3.20696 12.3317C4.89256 12.1816 6.56446 12.0309 8.22944 11.8957C12.3374 11.5893 16.4979 11.2073 20.6101 11.5178C21.0444 11.5451 21.4719 11.6149 21.898 11.693C21.7533 12.1287 21.5173 12.5654 21.1696 13.0015C20.2884 14.1955 18.9577 14.9702 18.0723 16.2316C17.7219 16.7952 17.1092 17.5566 17.4306 18.2835C17.6666 18.7637 18.247 18.9617 18.7272 18.7258C20.1523 17.9744 21.6659 17.3155 22.9085 16.233C24.2383 15.0712 25.0288 13.278 24.9702 11.5103Z" fill="#F77A09"/>
</g>
<defs>
<clipPath id="clip0_112_4480">
<rect width="58" height="58" fill="white"/>
</clipPath>
</defs>
</svg>
