<svg width="226" height="96" viewBox="0 0 226 96" fill="none" xmlns="http://www.w3.org/2000/svg">
<path fill-rule="evenodd" clip-rule="evenodd" d="M212.947 3.2556C190.375 31.9833 69.3274 60.5873 8.04478 41.1656C2.38098 39.3568 1.99815 39.3152 2.12714 40.4775C2.23771 41.4738 6.44393 43.7806 10.6226 45.0819L13.5836 46.014C17.6341 75.3172 18.9382 84.4176 20.8478 84.2057C21.8025 84.0997 21.8025 84.0997 24.4737 79.3908C29.1149 71.2275 32.8933 65.135 36.5659 56.953C40.0677 49.1262 39.0437 49.7442 47.3413 50.2941L52.6317 50.6315C56.0524 63.6574 65.2187 87.5602 65.2233 87.6017C66.6435 91.3103 68.9918 86.343 88.3182 49.1926C92.3264 48.5797 95.0662 48.6538 95.0662 48.6538C95.0708 48.6953 103.003 60.3381 107.305 69.1899C109.426 73.5351 114.591 82.2071 115.153 82.3548C117.533 82.9732 122.405 72.725 125.982 59.5109C127.537 53.8332 130.878 43.0406 131.251 42.621C131.358 42.4411 134.227 41.7865 139.711 40.4635C143.354 44.8919 146.744 48.9282 150.336 53.6564C153.979 58.463 162.096 67.6059 164.439 70.9179C169.516 78.0448 172.861 67.6719 174.927 38.5724C175.602 28.7481 174.988 30.0349 180.066 28.0845L184.296 26.4384C214.966 49.4677 204.16 40.329 214.269 48.1161C226.948 57.8454 218.224 33.011 214.352 14.404L213.191 8.85972C215.299 6.27244 216.632 4.65365 217.357 3.60673C218.828 1.34223 216.776 -1.62382 212.947 3.2556ZM209.939 12.1207C210.197 14.4454 218.061 45.9303 217.563 45.9856C216.774 46.0732 210.539 39.495 187.045 25.0827C205.939 16.2202 209.805 10.9168 209.939 12.1207ZM36.1932 49.8084C36.5714 50.1866 31.5935 57.9671 25.4389 70.6689C21.6418 78.4864 21.9233 77.9933 21.6051 77.7765C21.4667 77.6658 20.5128 71.3421 19.416 63.7314C17.0659 47.0987 16.6185 46.8538 16.7846 46.8354C16.8261 46.8308 36.101 49.7345 36.1932 49.8084ZM172.954 31.017C172.958 31.0586 167.008 69.0779 166.971 69.124C166.934 69.1701 143.11 39.666 143.152 39.6614C143.313 39.6014 146.782 38.6702 150.827 37.6329C172.266 32.0178 172.852 30.1038 172.954 31.017ZM84.5406 49.6118C80.8912 56.4884 74.1739 69.0425 70.6767 76.1544C66.9812 83.7506 67.0596 83.6999 65.3076 78.1371C59.3878 59.253 59.1067 57.4776 56.5245 51.6287C55.796 49.9866 57.2072 51.3425 84.5406 49.6118ZM113.858 74.0938C113.854 74.0523 98.3642 48.0781 98.3596 48.0366C98.355 47.9951 128.548 43.2571 128.59 43.2525C113.217 73.2404 117.686 80.5609 113.858 74.0938Z" fill="#F77A09"/>
</svg>
