<svg width="344" height="334" viewBox="0 0 344 334" fill="none" xmlns="http://www.w3.org/2000/svg">
<path opacity="0.03" fill-rule="evenodd" clip-rule="evenodd" d="M157.366 125.717C145.537 132.336 134.598 140.864 125.98 150.791C106.195 173.663 97.651 197.911 95.7012 227.307C93.3556 263.815 107.033 334.654 159.221 333.672C179.741 333.273 196.549 317.002 204.301 297.777C212.052 278.552 221.054 262.222 232.423 255.658C243.791 249.094 262.434 249.464 283.038 252.318C303.564 255.217 325.98 248.842 336.585 231.271C363.515 186.539 309.005 139.275 276.231 123.078C249.851 110.038 224.605 105.299 194.879 111.012C181.878 113.532 169.118 118.721 157.392 125.702L157.366 125.717ZM255.278 13.1386C303.041 -2.3919 323.98 88.9434 279.01 105.354C249.594 116.051 222.839 74.8875 234.123 37.2925C236.603 28.9777 243.276 17.0828 255.278 13.1386ZM152.691 -19.5033C179.441 -25.5 205.798 -1.59531 213.833 28.7086C217.549 42.5771 217.869 56.2289 214.572 68.0009C211.442 79.1494 202.857 94.6768 186.538 98.5147C146.479 108.017 112.489 53.4705 123.972 11.4064C127.291 -0.448714 136.202 -15.7778 152.691 -19.5033ZM10.9933 154.176C-26.3381 187.775 42.2386 251.607 78.9088 220.883C102.881 200.756 80.6098 157.003 42.4886 147.933C34.0479 145.923 20.3309 145.8 10.9933 154.176ZM34.0178 49.0129C15.4499 69.18 22.9734 103.958 45.1998 126.069C55.3522 136.222 67.0149 143.325 78.7793 146.401C89.999 149.265 107.818 149.548 119.301 137.334C147.507 107.423 117.316 50.6836 75.0672 39.6414C63.2196 36.543 45.4098 36.6412 34.0178 49.0129Z" fill="#81A3FF"/>
</svg>
