<svg width="889" height="240" viewBox="0 0 889 240" fill="none" xmlns="http://www.w3.org/2000/svg">
<g clip-path="url(#clip0_119_5847)">
<rect width="889" height="240" rx="20" fill="#6F98FF"/>
<path d="M867.502 256.928C906.63 260.843 902.261 285.574 878.552 309.747C832.962 356.23 770.189 375.765 725.219 378.841C695.942 380.845 676.143 368.729 668.65 342.602C662.908 322.581 670.373 294.086 688.286 264.392C712.793 223.765 756.193 177.698 770.547 154.588C771.156 153.612 771.81 152.259 772.455 150.676C764.057 155.597 754.655 162.525 744.365 169.773C693.337 205.709 633.567 260.006 600.574 278.337C591.691 283.249 534.794 315.664 510.495 318.128C489.154 320.292 475.507 311.11 468.144 300.087C458.96 286.338 456.719 269.732 462.338 251.574C470.817 224.174 505.94 188.943 516.478 175.778C558.918 123.244 604.551 74.2561 647.033 22.3273C664.59 0.866709 681.634 -21.0772 697.58 -44.0824C701.019 -49.0445 716.937 -68.8746 728.013 -89.2149C728.785 -90.63 729.569 -92.2413 730.316 -93.9218C723.676 -91.7068 717.212 -87.8741 710.871 -83.603C684.597 -65.8981 661.475 -38.1719 644.033 -21.099C595.162 26.8291 548.489 78.0632 498.545 125.475C464.039 158.232 428.043 189.255 388.496 216.004C365.69 232.155 303.621 272.552 253.785 285.574C214.842 295.75 182.045 287.911 161.895 263.606C145.727 244.129 143.806 216.211 152.696 185.629C165.115 142.918 202.671 93.5222 218.003 75.7571C247.226 42.6932 278.685 11.1355 312.487 -18.2982C360.175 -59.8235 411.562 -97.6225 456.112 -141.777C473.925 -159.434 490.94 -177.766 506.367 -197.518C513.964 -207.352 541.945 -240.699 561.659 -274.531C567.048 -283.782 568.157 -296.515 570.519 -305.425C567.34 -304.797 564.058 -303.892 560.817 -303.162C543.4 -299.245 526.332 -291.023 514.563 -284.638C471.51 -261.256 436.053 -239.002 402.868 -213.255C370.386 -188.054 340.252 -159.375 307.068 -123.234L224.168 -44.0825C173.284 6.70199 112.097 -56.0175 160.096 -104.379L240.874 -182.846C278.985 -221.827 313.595 -252.456 350.48 -279.394C387.899 -306.722 427.525 -330.396 475.685 -354.905C496.639 -365.596 529.081 -378.904 559.555 -382.155C588.421 -385.232 615.644 -379.91 636.062 -363.372C654.512 -348.427 662.818 -322.386 653.241 -288.918C639.526 -240.993 584.746 -167.057 572.87 -150.631C548.359 -115.818 519.986 -84.1068 489.626 -53.9732C449.314 -13.963 406.473 24.2168 363.044 61.2185C335.296 84.8608 306.722 107.217 280.977 132.362C272.936 140.117 257.362 156.336 243.827 175.315C236.113 186.133 228.562 197.532 224.168 208.761C222.734 212.427 221.273 215.891 220.767 219.32C219.843 225.598 225.766 223.534 231.485 224.001C243.851 222.669 257.682 218.534 271.38 212.986C305.695 199.087 339.313 177.787 354.305 168.022C391.048 143.104 424.599 114.318 456.466 83.6392C505.803 36.1418 551.257 -15.6858 599.24 -63.9587C622.292 -87.1973 655.005 -126.118 691.139 -145.356C713.074 -157.035 736.334 -162.086 759.918 -157.891C788.995 -152.728 800.283 -135.169 801.745 -112.236C802.503 -100.346 798.855 -85.2001 791.842 -69.6809C779.899 -43.2544 757.942 -14.3475 753.583 -7.83314C737.029 16.9064 719.344 40.5757 701.012 63.6706C661.951 112.882 619.935 159.427 580.487 208.757C619.564 182.476 680.226 128.105 727.463 100.102C752.597 85.2031 775.562 77.2851 792.311 77.43C821.917 77.6876 836.117 91.8353 842.786 109.354C846.272 118.513 847.393 129.72 845.496 141.611C842.773 158.668 833.972 177.755 826.907 188.648C813.885 208.664 778.513 245.774 752.551 281.714C743.997 293.555 727.463 309.747 731.991 315.77C736.519 321.792 821.95 273.452 821.95 273.452C826.891 270.581 834.49 265.611 841.79 262.283C843.562 261.137 845.533 260.114 847.71 259.243C853.513 256.921 863.843 256.562 867.502 256.928Z" fill="white" fill-opacity="0.15"/>
<path d="M48.474 55.28H54.174C56.986 55.28 59.2913 56.0147 61.09 57.484C62.914 58.928 63.826 60.9547 63.826 63.564C63.826 66.1733 62.914 68.238 61.09 69.758C59.2913 71.2527 56.986 72 54.174 72H43.23V45.4H61.508V50.074H48.474V55.28ZM48.474 67.44H53.756C55.1747 67.44 56.302 67.1107 57.138 66.452C57.974 65.7933 58.392 64.818 58.392 63.526C58.392 62.234 57.974 61.2587 57.138 60.6C56.302 59.916 55.1747 59.574 53.756 59.574H48.474V67.44ZM86.2395 61.322C86.2395 61.8793 86.1888 62.5633 86.0875 63.374H72.0655C72.2681 65.0713 72.8888 66.338 73.9275 67.174C74.9915 67.9847 76.3468 68.39 77.9935 68.39C80.2228 68.39 82.4015 67.668 84.5295 66.224H84.9855V70.822C82.7308 71.962 80.3241 72.532 77.7655 72.532C74.7255 72.532 72.2175 71.658 70.2415 69.91C68.2655 68.1367 67.2775 65.654 67.2775 62.462C67.2775 59.2953 68.2275 56.8253 70.1275 55.052C72.0528 53.2787 74.4468 52.392 77.3095 52.392C79.9948 52.392 82.1481 53.1647 83.7695 54.71C85.3908 56.2553 86.2141 58.4593 86.2395 61.322ZM77.2335 56.116C75.9668 56.116 74.8901 56.4707 74.0035 57.18C73.1168 57.8893 72.5215 58.89 72.2175 60.182H81.5275C81.2488 57.4713 79.8175 56.116 77.2335 56.116ZM89.4689 62.462C89.4689 59.3967 90.4315 56.952 92.3569 55.128C94.3075 53.304 96.7649 52.392 99.7289 52.392C101.654 52.392 103.466 52.848 105.163 53.76V58.548H104.745C103.124 57.3827 101.528 56.8 99.9569 56.8C98.3355 56.8 96.9929 57.3193 95.9289 58.358C94.8902 59.3713 94.3709 60.7393 94.3709 62.462C94.3709 64.1847 94.9029 65.5653 95.9669 66.604C97.0309 67.6173 98.4115 68.124 100.109 68.124C101.958 68.124 103.592 67.5033 105.011 66.262H105.467V71.164C103.77 72.076 101.908 72.532 99.8809 72.532C96.8155 72.532 94.3075 71.6327 92.3569 69.834C90.4315 68.0353 89.4689 65.578 89.4689 62.462ZM110.389 52.924H127.261V72H122.435V56.762H115.253V72H110.389V52.924ZM135.232 52.924H149.9V72H145.074V56.762H139.602L139.564 58.852C139.488 61.0307 139.31 62.9053 139.032 64.476C138.753 66.0467 138.411 67.3133 138.006 68.276C137.626 69.2387 137.132 69.9987 136.524 70.556C135.916 71.1133 135.282 71.4933 134.624 71.696C133.99 71.8733 133.23 71.9747 132.344 72H130.976V67.706H131.508C132.622 67.706 133.484 66.9967 134.092 65.578C134.674 64.21 135.029 61.6893 135.156 58.016L135.232 52.924ZM163.036 52.392C165.646 52.392 167.698 53.038 169.192 54.33C170.687 55.622 171.434 57.5853 171.434 60.22V72H167.254V69.986C165.886 71.6833 163.91 72.532 161.326 72.532C159.224 72.532 157.488 71.9493 156.12 70.784C154.778 69.6187 154.106 68.1493 154.106 66.376C154.106 64.5773 154.79 63.108 156.158 61.968C157.552 60.828 159.363 60.258 161.592 60.258C163.644 60.258 165.304 60.7393 166.57 61.702V60.6C166.57 57.9147 165.063 56.572 162.048 56.572C160.25 56.572 158.464 57.0787 156.69 58.092H156.196V53.722C158.35 52.8353 160.63 52.392 163.036 52.392ZM160.034 67.934C160.744 68.4153 161.719 68.656 162.96 68.656C164.202 68.656 165.177 68.4153 165.886 67.934C166.596 67.4527 166.95 66.8447 166.95 66.11C166.95 65.3753 166.596 64.78 165.886 64.324C165.177 63.8427 164.202 63.602 162.96 63.602C161.719 63.602 160.744 63.8427 160.034 64.324C159.325 64.78 158.97 65.3753 158.97 66.11C158.97 66.8447 159.325 67.4527 160.034 67.934ZM190.509 52.924V56.762H184.771V72H179.907V56.762H174.131V52.924H190.509ZM206.381 52.924H211.207V72H206.381V63.906H199.009V72H194.145V52.924H199.009V60.068H206.381V52.924ZM224.341 52.392C226.95 52.392 229.002 53.038 230.497 54.33C231.992 55.622 232.739 57.5853 232.739 60.22V72H228.559V69.986C227.191 71.6833 225.215 72.532 222.631 72.532C220.528 72.532 218.793 71.9493 217.425 70.784C216.082 69.6187 215.411 68.1493 215.411 66.376C215.411 64.5773 216.095 63.108 217.463 61.968C218.856 60.828 220.668 60.258 222.897 60.258C224.949 60.258 226.608 60.7393 227.875 61.702V60.6C227.875 57.9147 226.368 56.572 223.353 56.572C221.554 56.572 219.768 57.0787 217.995 58.092H217.501V53.722C219.654 52.8353 221.934 52.392 224.341 52.392ZM221.339 67.934C222.048 68.4153 223.024 68.656 224.265 68.656C225.506 68.656 226.482 68.4153 227.191 67.934C227.9 67.4527 228.255 66.8447 228.255 66.11C228.255 65.3753 227.9 64.78 227.191 64.324C226.482 63.8427 225.506 63.602 224.265 63.602C223.024 63.602 222.048 63.8427 221.339 64.324C220.63 64.78 220.275 65.3753 220.275 66.11C220.275 66.8447 220.63 67.4527 221.339 67.934ZM244.771 52.924H253.701V72H248.837V65.312H246.443L241.883 72H236.297L241.617 64.856C240.275 64.4507 239.223 63.7667 238.463 62.804C237.729 61.8413 237.361 60.676 237.361 59.308C237.361 57.332 238.033 55.774 239.375 54.634C240.743 53.494 242.542 52.924 244.771 52.924ZM245.569 61.892H248.837V56.724H245.569C244.581 56.724 243.783 56.952 243.175 57.408C242.593 57.864 242.301 58.4973 242.301 59.308C242.301 60.0933 242.605 60.7267 243.213 61.208C243.821 61.664 244.607 61.892 245.569 61.892ZM285.643 68.162H288.949V77.32H284.199V72H271.469V77.32H266.719V68.162H268.923C270.139 65.882 270.81 62.462 270.937 57.902L271.051 52.924H285.643V68.162ZM275.231 56.762L275.193 58.738C275.066 62.5887 274.496 65.73 273.483 68.162H280.779V56.762H275.231ZM294.343 69.758C292.418 67.9087 291.455 65.4767 291.455 62.462C291.455 59.4473 292.418 57.0153 294.343 55.166C296.269 53.3167 298.726 52.392 301.715 52.392C304.679 52.392 307.137 53.3167 309.087 55.166C311.038 57.0153 312.013 59.4473 312.013 62.462C312.013 65.4767 311.038 67.9087 309.087 69.758C307.137 71.6073 304.679 72.532 301.715 72.532C298.726 72.532 296.269 71.6073 294.343 69.758ZM296.357 62.462C296.357 64.1593 296.864 65.5273 297.877 66.566C298.891 67.6047 300.17 68.124 301.715 68.124C303.286 68.124 304.565 67.6173 305.553 66.604C306.567 65.5653 307.073 64.1847 307.073 62.462C307.073 60.7393 306.567 59.3713 305.553 58.358C304.565 57.3193 303.286 56.8 301.715 56.8C300.17 56.8 298.891 57.3193 297.877 58.358C296.864 59.3713 296.357 60.7393 296.357 62.462ZM315.317 62.462C315.317 59.3967 316.279 56.952 318.205 55.128C320.155 53.304 322.613 52.392 325.577 52.392C327.502 52.392 329.313 52.848 331.011 53.76V58.548H330.593C328.971 57.3827 327.375 56.8 325.805 56.8C324.183 56.8 322.841 57.3193 321.777 58.358C320.738 59.3713 320.219 60.7393 320.219 62.462C320.219 64.1847 320.751 65.5653 321.815 66.604C322.879 67.6173 324.259 68.124 325.957 68.124C327.806 68.124 329.44 67.5033 330.859 66.262H331.315V71.164C329.617 72.076 327.755 72.532 325.729 72.532C322.663 72.532 320.155 71.6327 318.205 69.834C316.279 68.0353 315.317 65.578 315.317 62.462ZM350.525 52.924V56.762H344.787V72H339.923V56.762H334.147V52.924H350.525ZM361.349 52.392C363.958 52.392 366.01 53.038 367.505 54.33C368.999 55.622 369.747 57.5853 369.747 60.22V72H365.567V69.986C364.199 71.6833 362.223 72.532 359.639 72.532C357.536 72.532 355.801 71.9493 354.433 70.784C353.09 69.6187 352.419 68.1493 352.419 66.376C352.419 64.5773 353.103 63.108 354.471 61.968C355.864 60.828 357.675 60.258 359.905 60.258C361.957 60.258 363.616 60.7393 364.883 61.702V60.6C364.883 57.9147 363.375 56.572 360.361 56.572C358.562 56.572 356.776 57.0787 355.003 58.092H354.509V53.722C356.662 52.8353 358.942 52.392 361.349 52.392ZM358.347 67.934C359.056 68.4153 360.031 68.656 361.273 68.656C362.514 68.656 363.489 68.4153 364.199 67.934C364.908 67.4527 365.263 66.8447 365.263 66.11C365.263 65.3753 364.908 64.78 364.199 64.324C363.489 63.8427 362.514 63.602 361.273 63.602C360.031 63.602 359.056 63.8427 358.347 64.324C357.637 64.78 357.283 65.3753 357.283 66.11C357.283 66.8447 357.637 67.4527 358.347 67.934ZM388.505 61.816C390.861 62.576 392.039 64.1087 392.039 66.414C392.039 68.086 391.393 69.4413 390.101 70.48C388.809 71.4933 387.112 72 385.009 72H375.053V52.924H383.907C385.984 52.924 387.656 53.3927 388.923 54.33C390.215 55.242 390.861 56.4833 390.861 58.054C390.861 59.7513 390.076 61.0053 388.505 61.816ZM385.237 60.068C385.693 59.688 385.921 59.194 385.921 58.586C385.921 57.978 385.693 57.4967 385.237 57.142C384.806 56.762 384.16 56.572 383.299 56.572H379.917V60.6H383.299C384.16 60.6 384.806 60.4227 385.237 60.068ZM379.917 68.352H384.287C385.174 68.352 385.87 68.1493 386.377 67.744C386.884 67.3133 387.137 66.756 387.137 66.072C387.137 65.388 386.884 64.8433 386.377 64.438C385.87 64.0073 385.174 63.792 384.287 63.792H379.917V68.352ZM414.585 72H408.543L401.589 62.88V72H396.725V52.924H401.589V60.638L407.897 52.924H413.787L406.225 61.55L414.585 72ZM425.14 52.392C427.749 52.392 429.801 53.038 431.296 54.33C432.79 55.622 433.538 57.5853 433.538 60.22V72H429.358V69.986C427.99 71.6833 426.014 72.532 423.43 72.532C421.327 72.532 419.592 71.9493 418.224 70.784C416.881 69.6187 416.21 68.1493 416.21 66.376C416.21 64.5773 416.894 63.108 418.262 61.968C419.655 60.828 421.466 60.258 423.696 60.258C425.748 60.258 427.407 60.7393 428.674 61.702V60.6C428.674 57.9147 427.166 56.572 424.152 56.572C422.353 56.572 420.567 57.0787 418.794 58.092H418.3V53.722C420.453 52.8353 422.733 52.392 425.14 52.392ZM422.138 67.934C422.847 68.4153 423.822 68.656 425.064 68.656C426.305 68.656 427.28 68.4153 427.99 67.934C428.699 67.4527 429.054 66.8447 429.054 66.11C429.054 65.3753 428.699 64.78 427.99 64.324C427.28 63.8427 426.305 63.602 425.064 63.602C423.822 63.602 422.847 63.8427 422.138 64.324C421.428 64.78 421.074 65.3753 421.074 66.11C421.074 66.8447 421.428 67.4527 422.138 67.934ZM42.85 94.924H59.722V114H54.896V98.762H47.714V114H42.85V94.924ZM76.0905 94.392C78.5225 94.392 80.6125 95.304 82.3605 97.128C84.1085 98.9267 84.9825 101.371 84.9825 104.462C84.9825 107.553 84.1085 110.01 82.3605 111.834C80.6125 113.633 78.5225 114.532 76.0905 114.532C73.7345 114.532 71.7965 113.671 70.2765 111.948V121.372H65.4125V94.924H69.5545V97.85C71.1505 95.5447 73.3292 94.392 76.0905 94.392ZM71.3025 108.604C72.2905 109.592 73.5065 110.086 74.9505 110.086C76.3945 110.086 77.5978 109.592 78.5605 108.604C79.5485 107.616 80.0425 106.235 80.0425 104.462C80.0425 102.689 79.5485 101.308 78.5605 100.32C77.5978 99.332 76.3945 98.838 74.9505 98.838C73.5065 98.838 72.2905 99.332 71.3025 100.32C70.3398 101.308 69.8585 102.689 69.8585 104.462C69.8585 106.235 70.3398 107.616 71.3025 108.604ZM103.1 94.924H106.9V114H102.074V102.41L93.2965 114H89.4965V94.924H94.3225V106.514L103.1 94.924ZM133.213 103.816C134.505 104.221 135.493 104.842 136.177 105.678C136.887 106.514 137.241 107.502 137.241 108.642C137.241 110.441 136.443 111.872 134.847 112.936C133.251 114 131.085 114.532 128.349 114.532C125.563 114.532 123.207 114.089 121.281 113.202V108.338H121.737C123.359 109.757 125.474 110.466 128.083 110.466C130.895 110.466 132.301 109.693 132.301 108.148C132.301 106.628 130.832 105.868 127.893 105.868H125.233V102.334H128.007C129.122 102.334 129.983 102.157 130.591 101.802C131.225 101.447 131.541 100.979 131.541 100.396C131.541 99.788 131.212 99.3193 130.553 98.99C129.92 98.6353 129.021 98.458 127.855 98.458C125.677 98.458 123.815 99.0787 122.269 100.32H121.851V95.608C124.055 94.7973 126.247 94.392 128.425 94.392C130.857 94.392 132.808 94.8607 134.277 95.798C135.747 96.7353 136.481 97.9893 136.481 99.56C136.481 101.536 135.392 102.955 133.213 103.816ZM149.343 94.392C151.952 94.392 154.004 95.038 155.499 96.33C156.994 97.622 157.741 99.5853 157.741 102.22V114H153.561V111.986C152.193 113.683 150.217 114.532 147.633 114.532C145.53 114.532 143.795 113.949 142.427 112.784C141.084 111.619 140.413 110.149 140.413 108.376C140.413 106.577 141.097 105.108 142.465 103.968C143.858 102.828 145.67 102.258 147.899 102.258C149.951 102.258 151.61 102.739 152.877 103.702V102.6C152.877 99.9147 151.37 98.572 148.355 98.572C146.556 98.572 144.77 99.0787 142.997 100.092H142.503V95.722C144.656 94.8353 146.936 94.392 149.343 94.392ZM146.341 109.934C147.05 110.415 148.026 110.656 149.267 110.656C150.508 110.656 151.484 110.415 152.193 109.934C152.902 109.453 153.257 108.845 153.257 108.11C153.257 107.375 152.902 106.78 152.193 106.324C151.484 105.843 150.508 105.602 149.267 105.602C148.026 105.602 147.05 105.843 146.341 106.324C145.632 106.78 145.277 107.375 145.277 108.11C145.277 108.845 145.632 109.453 146.341 109.934ZM180.907 114H174.865L167.911 104.88V114H163.047V94.924H167.911V102.638L174.219 94.924H180.109L172.547 103.55L180.907 114ZM191.462 94.392C194.071 94.392 196.123 95.038 197.618 96.33C199.113 97.622 199.86 99.5853 199.86 102.22V114H195.68V111.986C194.312 113.683 192.336 114.532 189.752 114.532C187.649 114.532 185.914 113.949 184.546 112.784C183.203 111.619 182.532 110.149 182.532 108.376C182.532 106.577 183.216 105.108 184.584 103.968C185.977 102.828 187.789 102.258 190.018 102.258C192.07 102.258 193.729 102.739 194.996 103.702V102.6C194.996 99.9147 193.489 98.572 190.474 98.572C188.675 98.572 186.889 99.0787 185.116 100.092H184.622V95.722C186.775 94.8353 189.055 94.392 191.462 94.392ZM188.46 109.934C189.169 110.415 190.145 110.656 191.386 110.656C192.627 110.656 193.603 110.415 194.312 109.934C195.021 109.453 195.376 108.845 195.376 108.11C195.376 107.375 195.021 106.78 194.312 106.324C193.603 105.843 192.627 105.602 191.386 105.602C190.145 105.602 189.169 105.843 188.46 106.324C187.751 106.78 187.396 107.375 187.396 108.11C187.396 108.845 187.751 109.453 188.46 109.934ZM216.338 103.816C217.63 104.221 218.618 104.842 219.302 105.678C220.012 106.514 220.366 107.502 220.366 108.642C220.366 110.441 219.568 111.872 217.972 112.936C216.376 114 214.21 114.532 211.474 114.532C208.688 114.532 206.332 114.089 204.406 113.202V108.338H204.862C206.484 109.757 208.599 110.466 211.208 110.466C214.02 110.466 215.426 109.693 215.426 108.148C215.426 106.628 213.957 105.868 211.018 105.868H208.358V102.334H211.132C212.247 102.334 213.108 102.157 213.716 101.802C214.35 101.447 214.666 100.979 214.666 100.396C214.666 99.788 214.337 99.3193 213.678 98.99C213.045 98.6353 212.146 98.458 210.98 98.458C208.802 98.458 206.94 99.0787 205.394 100.32H204.976V95.608C207.18 94.7973 209.372 94.392 211.55 94.392C213.982 94.392 215.933 94.8607 217.402 95.798C218.872 96.7353 219.606 97.9893 219.606 99.56C219.606 101.536 218.517 102.955 216.338 103.816ZM242.655 103.322C242.655 103.879 242.605 104.563 242.503 105.374H228.481C228.684 107.071 229.305 108.338 230.343 109.174C231.407 109.985 232.763 110.39 234.409 110.39C236.639 110.39 238.817 109.668 240.945 108.224H241.401V112.822C239.147 113.962 236.74 114.532 234.181 114.532C231.141 114.532 228.633 113.658 226.657 111.91C224.681 110.137 223.693 107.654 223.693 104.462C223.693 101.295 224.643 98.8253 226.543 97.052C228.469 95.2787 230.863 94.392 233.725 94.392C236.411 94.392 238.564 95.1647 240.185 96.71C241.807 98.2553 242.63 100.459 242.655 103.322ZM233.649 98.116C232.383 98.116 231.306 98.4707 230.419 99.18C229.533 99.8893 228.937 100.89 228.633 102.182H237.943C237.665 99.4713 236.233 98.116 233.649 98.116ZM258.199 111.758C256.273 109.909 255.311 107.477 255.311 104.462C255.311 101.447 256.273 99.0153 258.199 97.166C260.124 95.3167 262.581 94.392 265.571 94.392C268.535 94.392 270.992 95.3167 272.943 97.166C274.893 99.0153 275.869 101.447 275.869 104.462C275.869 107.477 274.893 109.909 272.943 111.758C270.992 113.607 268.535 114.532 265.571 114.532C262.581 114.532 260.124 113.607 258.199 111.758ZM260.213 104.462C260.213 106.159 260.719 107.527 261.733 108.566C262.746 109.605 264.025 110.124 265.571 110.124C267.141 110.124 268.421 109.617 269.409 108.604C270.422 107.565 270.929 106.185 270.929 104.462C270.929 102.739 270.422 101.371 269.409 100.358C268.421 99.3193 267.141 98.8 265.571 98.8C264.025 98.8 262.746 99.3193 261.733 100.358C260.719 101.371 260.213 102.739 260.213 104.462ZM294.304 94.924V98.762H288.566V114H283.702V98.762H277.926V94.924H294.304ZM311.988 109.44H321.83V114H304.806V110.884L313.774 100.13C315.218 98.3313 315.94 96.6593 315.94 95.114C315.94 93.9993 315.623 93.138 314.99 92.53C314.356 91.922 313.47 91.618 312.33 91.618C310.151 91.618 308.226 92.8087 306.554 95.19H306.022V89.528C308.074 87.7547 310.48 86.868 313.242 86.868C315.547 86.868 317.472 87.5013 319.018 88.768C320.512 90.06 321.26 91.8967 321.26 94.278C321.26 96.9887 319.93 99.902 317.27 103.018L311.988 109.44ZM328.384 110.884C326.459 108.452 325.496 105.057 325.496 100.7C325.496 96.3427 326.459 92.948 328.384 90.516C330.309 88.084 332.729 86.868 335.642 86.868C338.581 86.868 341.013 88.084 342.938 90.516C344.863 92.948 345.826 96.3427 345.826 100.7C345.826 105.057 344.863 108.452 342.938 110.884C341.013 113.316 338.581 114.532 335.642 114.532C332.729 114.532 330.309 113.316 328.384 110.884ZM332.07 93.974C331.209 95.5447 330.778 97.7867 330.778 100.7C330.778 103.613 331.209 105.855 332.07 107.426C332.957 108.997 334.147 109.782 335.642 109.782C337.162 109.782 338.353 109.009 339.214 107.464C340.101 105.893 340.544 103.639 340.544 100.7C340.544 97.7613 340.101 95.5193 339.214 93.974C338.353 92.4033 337.162 91.618 335.642 91.618C334.147 91.618 332.957 92.4033 332.07 93.974ZM353.062 110.884C351.136 108.452 350.174 105.057 350.174 100.7C350.174 96.3427 351.136 92.948 353.062 90.516C354.987 88.084 357.406 86.868 360.32 86.868C363.258 86.868 365.69 88.084 367.616 90.516C369.541 92.948 370.504 96.3427 370.504 100.7C370.504 105.057 369.541 108.452 367.616 110.884C365.69 113.316 363.258 114.532 360.32 114.532C357.406 114.532 354.987 113.316 353.062 110.884ZM356.748 93.974C355.886 95.5447 355.456 97.7867 355.456 100.7C355.456 103.613 355.886 105.855 356.748 107.426C357.634 108.997 358.825 109.782 360.32 109.782C361.84 109.782 363.03 109.009 363.892 107.464C364.778 105.893 365.222 103.639 365.222 100.7C365.222 97.7613 364.778 95.5193 363.892 93.974C363.03 92.4033 361.84 91.618 360.32 91.618C358.825 91.618 357.634 92.4033 356.748 93.974ZM377.74 110.884C375.814 108.452 374.852 105.057 374.852 100.7C374.852 96.3427 375.814 92.948 377.74 90.516C379.665 88.084 382.084 86.868 384.998 86.868C387.936 86.868 390.368 88.084 392.294 90.516C394.219 92.948 395.182 96.3427 395.182 100.7C395.182 105.057 394.219 108.452 392.294 110.884C390.368 113.316 387.936 114.532 384.998 114.532C382.084 114.532 379.665 113.316 377.74 110.884ZM381.426 93.974C380.564 95.5447 380.134 97.7867 380.134 100.7C380.134 103.613 380.564 105.855 381.426 107.426C382.312 108.997 383.503 109.782 384.998 109.782C386.518 109.782 387.708 109.009 388.57 107.464C389.456 105.893 389.9 103.639 389.9 100.7C389.9 97.7613 389.456 95.5193 388.57 93.974C387.708 92.4033 386.518 91.618 384.998 91.618C383.503 91.618 382.312 92.4033 381.426 93.974ZM410.283 103.094H406.711V105.83H414.691V109.212H406.711V114H401.733V109.212H398.465V105.83H401.733V103.094H398.465V99.256H401.733V87.932H410.359C416.794 87.932 420.011 90.516 420.011 95.684C420.011 98.2427 419.201 100.117 417.579 101.308C415.983 102.499 413.551 103.094 410.283 103.094ZM406.711 92.302V99.256H410.283C413.323 99.256 414.843 98.0907 414.843 95.76C414.843 93.4547 413.273 92.302 410.131 92.302H406.711Z" fill="white"/>
<path d="M41.504 159.8H50.272V171H48.832V161.112H42.944V171H41.504V159.8ZM57.2693 162.744C58.3039 162.744 59.1999 163.117 59.9573 163.864C60.7146 164.611 61.0933 165.651 61.0933 166.984C61.0933 168.317 60.7146 169.357 59.9573 170.104C59.2106 170.851 58.3199 171.224 57.2853 171.224C56.1119 171.224 55.1733 170.781 54.4693 169.896V174.104H53.0933V162.968H54.3093V164.28C54.6506 163.789 55.0826 163.411 55.6053 163.144C56.1279 162.877 56.6826 162.744 57.2693 162.744ZM55.1413 169.192C55.6639 169.693 56.2933 169.944 57.0293 169.944C57.7653 169.944 58.3893 169.693 58.9013 169.192C59.4239 168.68 59.6853 167.944 59.6853 166.984C59.6853 166.024 59.4239 165.293 58.9013 164.792C58.3893 164.28 57.7653 164.024 57.0293 164.024C56.2933 164.024 55.6639 164.28 55.1413 164.792C54.6293 165.293 54.3733 166.024 54.3733 166.984C54.3733 167.944 54.6293 168.68 55.1413 169.192ZM68.8354 162.968H69.9234V171H68.5474V165.288L64.2594 171H63.1714V162.968H64.5474V168.68L68.8354 162.968ZM80.3013 166.664C81.3359 167.005 81.8533 167.699 81.8533 168.744C81.8533 169.523 81.5599 170.131 80.9733 170.568C80.3866 171.005 79.5813 171.224 78.5573 171.224C77.4906 171.224 76.5413 171 75.7093 170.552V169.064H75.8853C76.5466 169.651 77.4053 169.944 78.4613 169.944C79.0693 169.944 79.5493 169.832 79.9013 169.608C80.2639 169.384 80.4453 169.064 80.4453 168.648C80.4453 168.232 80.2639 167.912 79.9013 167.688C79.5386 167.464 79.0106 167.352 78.3173 167.352H77.2453V166.168H78.4133C79.0106 166.168 79.4479 166.067 79.7253 165.864C80.0026 165.661 80.1413 165.4 80.1413 165.08C80.1413 164.749 79.9973 164.493 79.7093 164.312C79.4213 164.12 78.9999 164.024 78.4453 164.024C77.5706 164.024 76.7919 164.291 76.1093 164.824H75.9653V163.352C76.7973 162.947 77.6826 162.744 78.6213 162.744C79.5279 162.744 80.2426 162.941 80.7653 163.336C81.2879 163.72 81.5493 164.227 81.5493 164.856C81.5493 165.667 81.1333 166.269 80.3013 166.664ZM86.8315 162.744C87.8342 162.744 88.6288 163.005 89.2155 163.528C89.8128 164.04 90.1115 164.813 90.1115 165.848V171H88.8955V170.264C88.2875 170.904 87.4448 171.224 86.3675 171.224C85.4502 171.224 84.7142 170.984 84.1595 170.504C83.6048 170.013 83.3275 169.389 83.3275 168.632C83.3275 167.885 83.6102 167.272 84.1755 166.792C84.7515 166.312 85.5035 166.072 86.4315 166.072C87.4022 166.072 88.1702 166.323 88.7355 166.824V166.008C88.7355 165.336 88.5488 164.84 88.1755 164.52C87.8022 164.189 87.3008 164.024 86.6715 164.024C85.8928 164.024 85.1248 164.243 84.3675 164.68H84.1915V163.272C85.0448 162.92 85.9248 162.744 86.8315 162.744ZM85.2475 169.576C85.6102 169.821 86.1168 169.944 86.7675 169.944C87.4182 169.944 87.9248 169.821 88.2875 169.576C88.6502 169.32 88.8315 169 88.8315 168.616C88.8315 168.232 88.6502 167.917 88.2875 167.672C87.9248 167.416 87.4182 167.288 86.7675 167.288C86.1168 167.288 85.6102 167.416 85.2475 167.672C84.8848 167.917 84.7035 168.232 84.7035 168.616C84.7035 169 84.8848 169.32 85.2475 169.576ZM99.3456 171H97.4736L93.9536 166.904V171H92.5776V162.968H93.9536V166.424L97.1696 162.968H98.9456L95.4736 166.6L99.3456 171ZM103.691 162.744C104.694 162.744 105.488 163.005 106.075 163.528C106.672 164.04 106.971 164.813 106.971 165.848V171H105.755V170.264C105.147 170.904 104.304 171.224 103.227 171.224C102.31 171.224 101.574 170.984 101.019 170.504C100.464 170.013 100.187 169.389 100.187 168.632C100.187 167.885 100.47 167.272 101.035 166.792C101.611 166.312 102.363 166.072 103.291 166.072C104.262 166.072 105.03 166.323 105.595 166.824V166.008C105.595 165.336 105.408 164.84 105.035 164.52C104.662 164.189 104.16 164.024 103.531 164.024C102.752 164.024 101.984 164.243 101.227 164.68H101.051V163.272C101.904 162.92 102.784 162.744 103.691 162.744ZM102.107 169.576C102.47 169.821 102.976 169.944 103.627 169.944C104.278 169.944 104.784 169.821 105.147 169.576C105.51 169.32 105.691 169 105.691 168.616C105.691 168.232 105.51 167.917 105.147 167.672C104.784 167.416 104.278 167.288 103.627 167.288C102.976 167.288 102.47 167.416 102.107 167.672C101.744 167.917 101.563 168.232 101.563 168.616C101.563 169 101.744 169.32 102.107 169.576ZM113.645 166.664C114.68 167.005 115.197 167.699 115.197 168.744C115.197 169.523 114.904 170.131 114.317 170.568C113.73 171.005 112.925 171.224 111.901 171.224C110.834 171.224 109.885 171 109.053 170.552V169.064H109.229C109.89 169.651 110.749 169.944 111.805 169.944C112.413 169.944 112.893 169.832 113.245 169.608C113.608 169.384 113.789 169.064 113.789 168.648C113.789 168.232 113.608 167.912 113.245 167.688C112.882 167.464 112.354 167.352 111.661 167.352H110.589V166.168H111.757C112.354 166.168 112.792 166.067 113.069 165.864C113.346 165.661 113.485 165.4 113.485 165.08C113.485 164.749 113.341 164.493 113.053 164.312C112.765 164.12 112.344 164.024 111.789 164.024C110.914 164.024 110.136 164.291 109.453 164.824H109.309V163.352C110.141 162.947 111.026 162.744 111.965 162.744C112.872 162.744 113.586 162.941 114.109 163.336C114.632 163.72 114.893 164.227 114.893 164.856C114.893 165.667 114.477 166.269 113.645 166.664ZM124.384 166.488C124.384 166.755 124.368 167 124.336 167.224H118.112C118.155 168.152 118.459 168.84 119.024 169.288C119.579 169.747 120.235 169.976 120.992 169.976C121.963 169.976 122.853 169.619 123.664 168.904H123.84V170.376C122.976 170.941 122.016 171.224 120.96 171.224C119.787 171.224 118.795 170.856 117.984 170.12C117.173 169.373 116.768 168.328 116.768 166.984C116.768 165.651 117.163 164.611 117.952 163.864C118.752 163.117 119.717 162.744 120.848 162.744C121.915 162.744 122.768 163.064 123.408 163.704C124.048 164.344 124.373 165.272 124.384 166.488ZM120.832 163.96C120.16 163.96 119.589 164.147 119.12 164.52C118.651 164.883 118.341 165.411 118.192 166.104H123.04C122.923 164.675 122.187 163.96 120.832 163.96ZM139.899 169.784H141.307V173.24H139.963V171H133.915V173.24H132.571V169.784H133.531C134.117 168.771 134.427 167.256 134.459 165.24L134.491 162.968H139.899V169.784ZM135.691 164.184L135.675 165.544C135.643 167.155 135.381 168.568 134.891 169.784H138.523V164.184H135.691ZM143.656 170.056C142.856 169.267 142.456 168.243 142.456 166.984C142.456 165.725 142.856 164.707 143.656 163.928C144.466 163.139 145.474 162.744 146.68 162.744C147.885 162.744 148.888 163.139 149.688 163.928C150.498 164.707 150.904 165.725 150.904 166.984C150.904 168.243 150.498 169.267 149.688 170.056C148.888 170.835 147.885 171.224 146.68 171.224C145.474 171.224 144.466 170.835 143.656 170.056ZM144.664 164.84C144.13 165.384 143.864 166.099 143.864 166.984C143.864 167.869 144.13 168.584 144.664 169.128C145.197 169.672 145.869 169.944 146.68 169.944C147.49 169.944 148.162 169.672 148.696 169.128C149.229 168.584 149.496 167.869 149.496 166.984C149.496 166.099 149.229 165.384 148.696 164.84C148.162 164.296 147.49 164.024 146.68 164.024C145.869 164.024 145.197 164.296 144.664 164.84ZM158.003 169.688H162.675V171H155.827V170.232L159.763 165.352C160.52 164.413 160.899 163.544 160.899 162.744C160.899 162.168 160.739 161.725 160.419 161.416C160.109 161.107 159.699 160.952 159.187 160.952C158.675 160.952 158.195 161.096 157.747 161.384C157.299 161.672 156.925 162.045 156.627 162.504H156.419V160.824C156.728 160.429 157.133 160.125 157.635 159.912C158.147 159.688 158.691 159.576 159.267 159.576C160.195 159.576 160.941 159.848 161.507 160.392C162.083 160.925 162.371 161.672 162.371 162.632C162.371 163.272 162.248 163.853 162.003 164.376C161.768 164.899 161.389 165.475 160.867 166.104L158.003 169.688ZM165.487 169.688C164.762 168.653 164.399 167.224 164.399 165.4C164.399 163.576 164.762 162.152 165.487 161.128C166.223 160.093 167.183 159.576 168.367 159.576C169.551 159.576 170.506 160.093 171.231 161.128C171.967 162.152 172.335 163.576 172.335 165.4C172.335 167.224 171.967 168.653 171.231 169.688C170.506 170.712 169.551 171.224 168.367 171.224C167.183 171.224 166.223 170.712 165.487 169.688ZM166.527 162.12C166.09 162.888 165.871 163.981 165.871 165.4C165.871 166.819 166.09 167.917 166.527 168.696C166.975 169.464 167.588 169.848 168.367 169.848C169.146 169.848 169.754 169.464 170.191 168.696C170.639 167.917 170.863 166.819 170.863 165.4C170.863 163.981 170.639 162.888 170.191 162.12C169.754 161.341 169.146 160.952 168.367 160.952C167.588 160.952 166.975 161.341 166.527 162.12ZM175.471 169.688C174.746 168.653 174.383 167.224 174.383 165.4C174.383 163.576 174.746 162.152 175.471 161.128C176.207 160.093 177.167 159.576 178.351 159.576C179.535 159.576 180.49 160.093 181.215 161.128C181.951 162.152 182.319 163.576 182.319 165.4C182.319 167.224 181.951 168.653 181.215 169.688C180.49 170.712 179.535 171.224 178.351 171.224C177.167 171.224 176.207 170.712 175.471 169.688ZM176.511 162.12C176.074 162.888 175.855 163.981 175.855 165.4C175.855 166.819 176.074 167.917 176.511 168.696C176.959 169.464 177.573 169.848 178.351 169.848C179.13 169.848 179.738 169.464 180.175 168.696C180.623 167.917 180.847 166.819 180.847 165.4C180.847 163.981 180.623 162.888 180.175 162.12C179.738 161.341 179.13 160.952 178.351 160.952C177.573 160.952 176.959 161.341 176.511 162.12ZM185.456 169.688C184.73 168.653 184.368 167.224 184.368 165.4C184.368 163.576 184.73 162.152 185.456 161.128C186.192 160.093 187.152 159.576 188.336 159.576C189.52 159.576 190.474 160.093 191.2 161.128C191.936 162.152 192.304 163.576 192.304 165.4C192.304 167.224 191.936 168.653 191.2 169.688C190.474 170.712 189.52 171.224 188.336 171.224C187.152 171.224 186.192 170.712 185.456 169.688ZM186.496 162.12C186.058 162.888 185.84 163.981 185.84 165.4C185.84 166.819 186.058 167.917 186.496 168.696C186.944 169.464 187.557 169.848 188.336 169.848C189.114 169.848 189.722 169.464 190.16 168.696C190.608 167.917 190.832 166.819 190.832 165.4C190.832 163.981 190.608 162.888 190.16 162.12C189.722 161.341 189.114 160.952 188.336 160.952C187.557 160.952 186.944 161.341 186.496 162.12ZM198.624 166.104H196.752V167.512H200.272V168.664H196.752V171H195.376V168.664H193.904V167.512H195.376V166.104H193.904V164.92H195.376V160.024H198.592C199.819 160.024 200.763 160.291 201.424 160.824C202.085 161.357 202.416 162.131 202.416 163.144C202.416 164.125 202.091 164.867 201.44 165.368C200.8 165.859 199.861 166.104 198.624 166.104ZM196.752 161.272V164.92H198.624C200.192 164.92 200.976 164.312 200.976 163.096C200.976 162.435 200.768 161.965 200.352 161.688C199.947 161.411 199.349 161.272 198.56 161.272H196.752ZM203.036 169.208H204.556L203.436 173.464H202.332L203.036 169.208ZM216.868 169.784H218.276V173.24H216.932V171H210.884V173.24H209.54V169.784H210.5C211.086 168.771 211.396 167.256 211.428 165.24L211.46 162.968H216.868V169.784ZM212.66 164.184L212.644 165.544C212.612 167.155 212.35 168.568 211.86 169.784H215.492V164.184H212.66ZM220.624 170.056C219.824 169.267 219.424 168.243 219.424 166.984C219.424 165.725 219.824 164.707 220.624 163.928C221.435 163.139 222.443 162.744 223.648 162.744C224.854 162.744 225.856 163.139 226.656 163.928C227.467 164.707 227.872 165.725 227.872 166.984C227.872 168.243 227.467 169.267 226.656 170.056C225.856 170.835 224.854 171.224 223.648 171.224C222.443 171.224 221.435 170.835 220.624 170.056ZM221.632 164.84C221.099 165.384 220.832 166.099 220.832 166.984C220.832 167.869 221.099 168.584 221.632 169.128C222.166 169.672 222.838 169.944 223.648 169.944C224.459 169.944 225.131 169.672 225.664 169.128C226.198 168.584 226.464 167.869 226.464 166.984C226.464 166.099 226.198 165.384 225.664 164.84C225.131 164.296 224.459 164.024 223.648 164.024C222.838 164.024 222.166 164.296 221.632 164.84ZM229.409 166.984C229.409 165.736 229.798 164.717 230.577 163.928C231.366 163.139 232.353 162.744 233.537 162.744C234.379 162.744 235.142 162.973 235.825 163.432V164.904H235.681C235.019 164.317 234.315 164.024 233.569 164.024C232.79 164.024 232.134 164.296 231.601 164.84C231.078 165.384 230.817 166.099 230.817 166.984C230.817 167.88 231.083 168.6 231.617 169.144C232.15 169.677 232.827 169.944 233.649 169.944C234.459 169.944 235.158 169.651 235.745 169.064H235.921V170.552C235.249 171 234.475 171.224 233.601 171.224C232.385 171.224 231.382 170.835 230.593 170.056C229.803 169.277 229.409 168.253 229.409 166.984ZM243.724 162.968V164.184H241.164V171H239.788V164.184H237.228V162.968H243.724ZM248.16 162.744C249.162 162.744 249.957 163.005 250.544 163.528C251.141 164.04 251.44 164.813 251.44 165.848V171H250.224V170.264C249.616 170.904 248.773 171.224 247.696 171.224C246.778 171.224 246.042 170.984 245.488 170.504C244.933 170.013 244.656 169.389 244.656 168.632C244.656 167.885 244.938 167.272 245.504 166.792C246.08 166.312 246.832 166.072 247.76 166.072C248.73 166.072 249.498 166.323 250.064 166.824V166.008C250.064 165.336 249.877 164.84 249.504 164.52C249.13 164.189 248.629 164.024 248 164.024C247.221 164.024 246.453 164.243 245.696 164.68H245.52V163.272C246.373 162.92 247.253 162.744 248.16 162.744ZM246.576 169.576C246.938 169.821 247.445 169.944 248.096 169.944C248.746 169.944 249.253 169.821 249.616 169.576C249.978 169.32 250.16 169 250.16 168.616C250.16 168.232 249.978 167.917 249.616 167.672C249.253 167.416 248.746 167.288 248.096 167.288C247.445 167.288 246.938 167.416 246.576 167.672C246.213 167.917 246.032 168.232 246.032 168.616C246.032 169 246.213 169.32 246.576 169.576ZM259.026 166.68C259.484 166.84 259.842 167.096 260.098 167.448C260.364 167.789 260.498 168.2 260.498 168.68C260.498 169.373 260.242 169.933 259.73 170.36C259.228 170.787 258.578 171 257.778 171H253.906V162.968H257.41C258.178 162.968 258.796 163.165 259.266 163.56C259.735 163.955 259.97 164.472 259.97 165.112C259.97 165.837 259.655 166.36 259.026 166.68ZM258.562 165.224C258.562 164.925 258.45 164.68 258.226 164.488C258.002 164.285 257.682 164.184 257.266 164.184H255.282V166.264H257.266C257.682 166.264 258.002 166.168 258.226 165.976C258.45 165.784 258.562 165.533 258.562 165.224ZM255.282 169.784H257.634C258.082 169.784 258.434 169.677 258.69 169.464C258.956 169.24 259.09 168.952 259.09 168.6C259.09 168.259 258.956 167.976 258.69 167.752C258.434 167.528 258.082 167.416 257.634 167.416H255.282V169.784ZM269.408 171H267.536L264.016 166.904V171H262.64V162.968H264.016V166.424L267.232 162.968H269.008L265.536 166.6L269.408 171ZM273.753 162.744C274.756 162.744 275.551 163.005 276.137 163.528C276.735 164.04 277.033 164.813 277.033 165.848V171H275.817V170.264C275.209 170.904 274.367 171.224 273.289 171.224C272.372 171.224 271.636 170.984 271.081 170.504C270.527 170.013 270.249 169.389 270.249 168.632C270.249 167.885 270.532 167.272 271.097 166.792C271.673 166.312 272.425 166.072 273.353 166.072C274.324 166.072 275.092 166.323 275.657 166.824V166.008C275.657 165.336 275.471 164.84 275.097 164.52C274.724 164.189 274.223 164.024 273.593 164.024C272.815 164.024 272.047 164.243 271.289 164.68H271.113V163.272C271.967 162.92 272.847 162.744 273.753 162.744ZM272.169 169.576C272.532 169.821 273.039 169.944 273.689 169.944C274.34 169.944 274.847 169.821 275.209 169.576C275.572 169.32 275.753 169 275.753 168.616C275.753 168.232 275.572 167.917 275.209 167.672C274.847 167.416 274.34 167.288 273.689 167.288C273.039 167.288 272.532 167.416 272.169 167.672C271.807 167.917 271.625 168.232 271.625 168.616C271.625 169 271.807 169.32 272.169 169.576ZM284.668 159.8H285.836V171H284.428V162.2C283.905 162.659 283.19 162.888 282.284 162.888V161.544C282.934 161.544 283.478 161.389 283.916 161.08C284.364 160.76 284.614 160.333 284.668 159.8ZM291.852 163.784C292.855 163.784 293.665 164.109 294.284 164.76C294.903 165.411 295.212 166.307 295.212 167.448C295.212 168.632 294.876 169.56 294.204 170.232C293.532 170.893 292.609 171.224 291.436 171.224C290.284 171.224 289.271 170.877 288.396 170.184V168.456H288.604C289.447 169.384 290.364 169.848 291.356 169.848C292.103 169.848 292.684 169.645 293.1 169.24C293.527 168.824 293.74 168.227 293.74 167.448C293.74 166.701 293.532 166.125 293.116 165.72C292.711 165.304 292.167 165.096 291.484 165.096C290.599 165.096 289.9 165.395 289.388 165.992L288.668 165.816L289.612 159.8H294.684V161.144H290.684L290.204 164.152C290.727 163.907 291.276 163.784 291.852 163.784ZM298.034 169.688C297.309 168.653 296.946 167.224 296.946 165.4C296.946 163.576 297.309 162.152 298.034 161.128C298.77 160.093 299.73 159.576 300.914 159.576C302.098 159.576 303.053 160.093 303.778 161.128C304.514 162.152 304.882 163.576 304.882 165.4C304.882 167.224 304.514 168.653 303.778 169.688C303.053 170.712 302.098 171.224 300.914 171.224C299.73 171.224 298.77 170.712 298.034 169.688ZM299.074 162.12C298.637 162.888 298.418 163.981 298.418 165.4C298.418 166.819 298.637 167.917 299.074 168.696C299.522 169.464 300.135 169.848 300.914 169.848C301.693 169.848 302.301 169.464 302.738 168.696C303.186 167.917 303.41 166.819 303.41 165.4C303.41 163.981 303.186 162.888 302.738 162.12C302.301 161.341 301.693 160.952 300.914 160.952C300.135 160.952 299.522 161.341 299.074 162.12ZM311.202 166.104H309.33V167.512H312.85V168.664H309.33V171H307.954V168.664H306.482V167.512H307.954V166.104H306.482V164.92H307.954V160.024H311.17C312.397 160.024 313.341 160.291 314.002 160.824C314.664 161.357 314.994 162.131 314.994 163.144C314.994 164.125 314.669 164.867 314.018 165.368C313.378 165.859 312.44 166.104 311.202 166.104ZM309.33 161.272V164.92H311.202C312.77 164.92 313.554 164.312 313.554 163.096C313.554 162.435 313.346 161.965 312.93 161.688C312.525 161.411 311.928 161.272 311.138 161.272H309.33ZM315.706 170.952C315.514 170.76 315.418 170.509 315.418 170.2C315.418 169.891 315.514 169.645 315.706 169.464C315.909 169.272 316.154 169.176 316.442 169.176C316.73 169.176 316.97 169.272 317.162 169.464C317.365 169.645 317.466 169.891 317.466 170.2C317.466 170.509 317.365 170.76 317.162 170.952C316.97 171.133 316.73 171.224 316.442 171.224C316.154 171.224 315.909 171.133 315.706 170.952Z" fill="white"/>
<g clip-path="url(#clip1_119_5847)">
<path d="M761.964 168.924C762.109 154.14 756.092 137.215 740.831 132.116C741.213 103.287 724.251 91.0285 698.12 96.6967C698.981 88.6208 699.328 80.5296 698.021 72.4016C696.117 61.8696 688.817 57.3131 678.438 59.4128C672.567 60.3428 674.897 69.2393 680.471 67.1606C701.947 58.6564 686.852 110.019 685.801 119.613C685.397 123.374 683.367 130.965 684.128 136.252C661.231 135.338 638.367 132.72 615.435 131.77C608.283 132.053 608.591 143.01 615.832 142.783C630.222 142.247 646.589 142.819 661.153 143.201C682.769 143.88 704.624 143.985 726.191 141.953C729.663 141.707 733.479 141.233 736.993 140.924C754.731 144.807 755.541 166.506 754.87 181.349C747.538 180.648 740.214 181.667 732.925 181.555C732.623 181.545 732.204 181.525 731.756 181.5C731.721 181.28 731.684 181.059 731.641 180.837C728.41 158.798 695.585 164.109 693.777 182.837C692.255 183.083 690.727 183.416 689.466 183.397C682.114 183.904 674.676 183.675 667.325 183.533C664.414 183.429 660.812 183.265 657.922 183.043C654.346 183.317 648.684 181.367 644.503 181.69C642.189 172.197 630.8 167.373 621.627 169.761C614.2 171.289 608.866 177.5 607.393 184.64C596.593 184.415 591.144 171.395 593.002 161.612C593.527 147.014 592.353 132.782 592.453 118.372C592.483 113.679 592.659 109.03 593.079 104.45C593.376 101.317 590.938 98.5402 587.789 98.4419C584.744 98.3343 582.19 100.721 582.09 103.765C581.914 108.756 582.01 113.704 582.253 118.597C582.971 132.938 585.062 147.357 585.399 161.531C584.542 172.189 589.309 184.421 599.796 188.598C601.225 189.161 604.254 189.851 607.022 189.887C607.112 191.259 607.347 192.632 607.746 193.981C614.454 211.807 638.851 207.662 644.053 192.484C648.315 193.278 654.311 191.76 657.836 192.081C661.037 191.903 667.465 191.508 670.661 191.285C675.075 191.001 685.423 190.108 689.717 190.182C691.137 190.142 692.991 190.404 694.769 190.474C695.77 193.295 697.329 195.936 699.339 198.138C710.099 209.294 728.893 201.35 731.642 187.719C737.886 188.039 744.138 187.379 750.305 187.607C754.238 187.483 760.609 190.453 761.408 184.649C761.817 179.512 762.105 174.291 761.964 168.924V168.924ZM714.252 136.19C707.914 136.529 701.581 136.624 695.253 136.548C695.29 135.456 695.111 134.309 694.768 133.209C694.524 130.866 694.597 128.513 694.738 126.063C695.142 118.668 696.27 111.281 697.248 103.884C699.07 103.932 700.887 103.968 702.705 104.062C724.103 104.665 729.096 113.321 730.798 133.506C730.822 133.734 730.859 133.964 730.902 134.194C730.263 134.34 729.653 134.452 729.095 134.492C724.177 135.281 719.223 135.842 714.252 136.19V136.19ZM638.801 186.801C637.886 193.482 629.923 194.881 624.33 194.592C618.875 194.522 615.218 190.478 616.114 185.04C617.53 172.506 640.641 172.933 638.801 186.801ZM724.844 189.236C723.062 193.626 718.331 196.418 713.701 196.522C711.035 196.623 708.096 195.797 706.175 193.96C702.752 190.682 701.344 184.289 705.457 180.961C713.348 174.157 729.604 175.231 724.844 189.236V189.236Z" fill="white"/>
<path d="M665.054 34.8497C663.499 33.7674 661.408 34.359 660.504 35.986C658.76 38.5196 656.824 41.4095 655.09 43.9749C649.767 51.8941 644.443 59.844 638.684 67.4178C621.892 87.9151 622.364 95.1435 599.852 74.3471C597.009 71.9292 593.945 69.3274 590.776 67.2732C587.984 65.3431 584.382 69.1501 586.575 71.847C599.748 92.1438 621.702 112.811 637.578 82.1808L640.274 78.3542C647.832 67.7808 651.951 60.9723 658.813 49.9573C661.114 46.3213 663.414 42.6918 665.846 39.1527C666.818 37.7451 666.461 35.8223 665.054 34.8497V34.8497Z" fill="#1951E7"/>
</g>
</g>
<defs>
<clipPath id="clip0_119_5847">
<rect width="889" height="240" fill="white"/>
</clipPath>
<clipPath id="clip1_119_5847">
<rect width="180" height="180" fill="white" transform="translate(582 30)"/>
</clipPath>
</defs>
</svg>
