<svg width="109" height="109" viewBox="0 0 109 109" fill="none" xmlns="http://www.w3.org/2000/svg">
<path d="M65.7127 34.8066C68.91 35.3879 69.891 22.0173 66.8027 19.9827C65.6763 19.2197 64.4773 19.6919 63.9323 21.1089C61.4617 27.2129 62.37 34.1889 65.7127 34.8066Z" fill="#1951E7"/>
<path d="M52.1239 37.0232C53.8679 37.9315 60.2989 38.1858 60.6259 37.3501C61.3526 35.4245 56.2296 34.0075 51.7606 34.8432C50.5253 35.0975 50.7433 36.2965 52.1239 37.0232Z" fill="#1951E7"/>
<path d="M65.423 52.7918C67.7846 52.7918 68.2206 42.3278 65.9316 40.5838C64.987 39.8935 63.0249 39.9661 62.6253 40.7291C59.9729 45.6341 61.6443 52.7918 65.423 52.7918Z" fill="#1951E7"/>
<path d="M76.7942 38.4038C80.2822 38.6581 81.4816 38.1858 80.7549 36.8051C79.9556 35.3154 69.7823 34.1163 69.2736 35.4606C68.6923 36.9505 71.4532 38.0041 76.7942 38.4038Z" fill="#1951E7"/>
<path d="M33.6305 55.5166C30.0698 55.1532 28.4348 54.7899 27.4901 55.4802C25.7461 56.7519 29.6701 58.5322 34.5025 58.7139C39.2259 58.8592 38.4629 56.0252 33.6305 55.5166Z" fill="#1951E7"/>
<path d="M42.0594 60.9303C40.4244 59.8766 38.317 59.8039 37.881 60.8213C37.336 62.1293 36.8274 68.4876 37.227 69.2506C37.9537 70.7039 42.2774 71.5759 42.7497 70.3769C43.44 68.4876 42.9677 61.5116 42.0594 60.9303Z" fill="#1951E7"/>
<path d="M38.7179 41.4193C37.0103 41.71 36.4653 50.43 38.0276 52.3193C39.3356 53.8817 43.4413 55.5167 43.3323 50.648C43.1869 43.672 43.0416 40.729 38.7179 41.4193Z" fill="#1951E7"/>
<path d="M52.8873 55.4439C51.1433 54.7173 44.0947 54.7536 43.8403 55.5166C43.2227 57.0789 46.1293 58.2416 50.671 58.2416C55.249 58.2416 56.339 56.8973 52.8873 55.4439Z" fill="#1951E7"/>
</svg>
