<svg width="49" height="51" viewBox="0 0 49 51" fill="none" xmlns="http://www.w3.org/2000/svg">
<path opacity="0.6" fill-rule="evenodd" clip-rule="evenodd" d="M22.2808 21.3719C20.6264 22.2976 19.0966 23.4903 17.8913 24.8786C15.1243 28.0773 13.9293 31.4686 13.6567 35.5797C13.3286 40.6855 15.2414 50.5927 22.5402 50.4553C25.41 50.3995 27.7607 48.1239 28.8448 45.4352C29.9289 42.7465 31.1878 40.4627 32.7778 39.5448C34.3677 38.6268 36.975 38.6784 39.8566 39.0775C42.7271 39.4831 45.8621 38.5915 47.3453 36.134C51.1116 29.8782 43.4881 23.268 38.9045 21.0029C35.2151 19.1792 31.6844 18.5163 27.5271 19.3154C25.7089 19.6677 23.9244 20.3935 22.2844 21.3698L22.2808 21.3719ZM35.9741 5.62732C42.654 3.45531 45.5824 16.229 39.2933 18.5241C35.1793 20.0201 31.4374 14.2632 33.0156 9.00536C33.3624 7.84249 34.2956 6.17894 35.9741 5.62732ZM21.627 1.06221C25.368 0.223541 29.0541 3.56672 30.1779 7.80485C30.6976 9.74442 30.7424 11.6537 30.2813 13.3001C29.8435 14.8592 28.6429 17.0308 26.3606 17.5675C20.7581 18.8965 16.0045 11.2679 17.6104 5.38507C18.0747 3.72708 19.3209 1.58324 21.627 1.06221ZM1.80989 25.3521C-3.41107 30.051 6.17968 38.9781 11.3082 34.6813C14.6608 31.8665 11.5461 25.7474 6.21464 24.4789C5.03417 24.1978 3.1158 24.1806 1.80989 25.3521ZM5.02997 10.6445C2.43317 13.465 3.48536 18.3289 6.59382 21.4211C8.01367 22.841 9.64475 23.8344 11.29 24.2646C12.8592 24.6652 15.3512 24.7047 16.9572 22.9966C20.902 18.8134 16.6796 10.8782 10.7709 9.33386C9.11397 8.90054 6.62318 8.91426 5.02997 10.6445Z" fill="white"/>
</svg>
