<svg width="36" height="44" viewBox="0 0 36 44" fill="none" xmlns="http://www.w3.org/2000/svg">
<path d="M30.728 30.728L18 43.456L5.27201 30.728C2.75469 28.2106 1.04037 25.0033 0.345857 21.5117C-0.348659 18.02 0.00781369 14.4009 1.3702 11.1118C2.73258 7.82274 5.03969 5.01154 7.99977 3.03368C10.9598 1.05583 14.44 0.000152588 18 0.000152588C21.5601 0.000152588 25.0402 1.05583 28.0002 3.03368C30.9603 5.01154 33.2674 7.82274 34.6298 11.1118C35.9922 14.4009 36.3487 18.02 35.6542 21.5117C34.9596 25.0033 33.2453 28.2106 30.728 30.728Z" fill="#1951E7"/>
<g clip-path="url(#clip0_1079_4728)">
<path fill-rule="evenodd" clip-rule="evenodd" d="M18.0649 15.209C17.2082 15.1974 16.3398 15.3188 15.5543 15.5905C13.7483 16.2187 12.5142 17.2785 11.4784 18.8297C10.1961 20.7586 8.70593 25.0788 11.5939 26.6782C12.7299 27.3064 14.1642 26.946 15.1962 26.1367C16.2282 25.3274 17.237 24.7166 18.0668 24.7166C18.8967 24.7166 19.9055 25.3274 20.9433 26.1367C21.9753 26.946 23.4038 27.3064 24.5398 26.6782C27.4278 25.0769 25.9376 20.7567 24.6553 18.8297C23.6233 17.2785 22.3911 16.2187 20.5832 15.5905C19.7919 15.3169 18.9294 15.1974 18.0668 15.209H18.0649ZM26.983 12.1336C30.0886 12.7945 28.3481 18.4694 25.3677 17.9453C23.4192 17.6003 23.2556 14.4941 25.0615 12.7887C25.4601 12.4111 26.2013 11.9698 26.983 12.1336ZM22.3988 7.09269C24.0527 7.61104 24.74 9.75766 24.2221 11.675C23.9872 12.5537 23.5733 13.3129 23.0207 13.8543C22.497 14.3669 21.5363 14.9469 20.5216 14.6405C18.0283 13.8929 17.8916 9.82317 19.8497 7.87888C20.4061 7.33356 21.3784 6.77474 22.3988 7.09269ZM9.15261 12.1336C6.04706 12.7945 7.7837 18.4694 10.7622 17.9453C12.7106 17.6003 12.8743 14.4941 11.0741 12.7887C10.6755 12.4111 9.92851 11.9698 9.15261 12.1336ZM13.7368 7.09269C12.0829 7.61104 11.3956 9.75766 11.9135 11.675C12.1484 12.5537 12.5624 13.3129 13.1091 13.8543C13.6328 14.3669 14.5993 14.9469 15.614 14.6405C18.1034 13.8929 18.244 9.82317 16.2801 7.87888C15.7295 7.33356 14.7514 6.77474 13.7368 7.09269Z" fill="white"/>
<path fill-rule="evenodd" clip-rule="evenodd" d="M11.4773 16.3555H8.93975C9.36524 16.9336 9.96017 17.3113 10.6321 17.1918C11.0846 17.1148 11.3464 16.7814 11.4773 16.3555ZM24.6523 16.3555H27.1957C26.7702 16.9336 26.1695 17.3113 25.4975 17.1918C25.0451 17.1148 24.7832 16.7814 24.6523 16.3555ZM23.3373 8.94257H19.9584C20.0835 8.7518 20.226 8.57645 20.3896 8.41844C20.6245 8.18335 20.9576 7.94827 21.333 7.8288C21.5949 7.75172 21.8837 7.73052 22.1686 7.81723C22.6981 7.98681 23.0909 8.4011 23.3373 8.94257ZM23.3489 11.9081H19.2999C19.2344 11.4322 19.2556 10.9254 19.3538 10.4282H23.6319C23.6261 10.937 23.5221 11.4283 23.3489 11.9081ZM27.8195 14.8737H24.6754C24.8179 14.338 25.1009 13.8139 25.5322 13.388H27.6057C27.8888 13.8139 27.9003 14.3881 27.8195 14.8737ZM19.9276 13.388H22.4055C21.9684 13.7811 21.3311 14.0875 20.74 13.9122C20.4185 13.8139 20.1451 13.6385 19.9276 13.388ZM22.417 17.4404H13.7203C14.3095 16.9645 14.991 16.5887 15.7997 16.3093C16.1328 16.1937 16.4928 16.107 16.8702 16.0472C17.2745 15.9875 17.673 15.9605 18.06 15.9644H18.0716C18.4643 15.9586 18.8629 15.9856 19.2614 16.0472C19.6388 16.107 19.9988 16.1956 20.3357 16.3093C21.1444 16.5887 21.8202 16.9645 22.4151 17.4404H22.417ZM24.7043 20.4985H11.433C11.6737 19.9532 11.9567 19.456 12.3071 18.9685H23.8283C24.1729 19.4541 24.4559 19.9512 24.7024 20.4985H24.7043ZM25.4417 23.5623H10.6918C10.6918 23.0498 10.7746 22.5295 10.8997 22.0323H25.2299C25.355 22.5295 25.4378 23.0478 25.4378 23.5623H25.4417ZM20.9018 25.0923H25.099C24.9353 25.3929 24.7062 25.6608 24.4001 25.8689C24.3885 25.8804 24.3789 25.8862 24.3674 25.8959C24.2903 25.946 24.2249 25.9826 24.1767 26.0115C23.8494 26.1926 23.4567 26.2196 23.0581 26.1599C22.0916 26.0173 21.618 25.6569 20.9018 25.0942V25.0923ZM12.7923 8.9445H16.1751C16.05 8.75373 15.9017 8.57838 15.7438 8.42037C15.5089 8.18528 15.1701 7.95019 14.7947 7.83072C14.5328 7.75365 14.2498 7.73245 13.9591 7.81916C13.4296 7.98873 13.0368 8.40303 12.7904 8.9445H12.7923ZM12.7808 11.9101H16.8297C16.8952 11.4341 16.8798 10.9273 16.7758 10.4302H12.5035C12.5093 10.9389 12.6075 11.4303 12.7827 11.9101H12.7808ZM8.31209 14.8756H11.46C11.3117 14.34 11.0287 13.8158 10.5975 13.39H8.52388C8.24471 13.8158 8.2293 14.3901 8.31017 14.8756H8.31209ZM16.2098 13.39H13.7319C14.1689 13.7831 14.8024 14.0895 15.3973 13.9141C15.713 13.8158 15.9864 13.6405 16.2098 13.39ZM15.2336 25.0962H11.0345C11.2155 25.4295 11.46 25.6916 11.7719 25.8997C11.8489 25.9498 11.9144 25.9864 11.9625 26.0153C12.284 26.1965 12.6768 26.2234 13.0811 26.1637C14.0419 26.0211 14.5213 25.6608 15.2317 25.0981L15.2336 25.0962Z" fill="#BAC6E6"/>
</g>
<defs>
<clipPath id="clip0_1079_4728">
<rect width="22" height="20" fill="white" transform="translate(7 7)"/>
</clipPath>
</defs>
</svg>
