<svg width="451" height="445" viewBox="0 0 451 445" fill="none" xmlns="http://www.w3.org/2000/svg">
<path d="M-26.0047 19.9774C-51.4105 17.4387 -48.5735 1.40067 -33.1793 -14.275C-3.57779 -44.4177 37.1814 -57.0858 66.3798 -59.0808C85.3896 -60.3801 98.2449 -52.5231 103.11 -35.5807C106.838 -22.5974 101.992 -4.11881 90.3608 15.137C74.4483 41.4825 46.2687 71.3559 36.9487 86.3424C36.5534 86.975 36.1283 87.8528 35.7099 88.8794C41.1626 85.6882 47.2676 81.1953 53.9488 76.4955C87.0808 53.1915 125.89 17.9815 147.312 6.09389C153.08 2.90855 190.023 -18.112 205.801 -19.7097C219.658 -21.1128 228.518 -15.1586 233.299 -8.01071C239.262 0.905243 240.717 11.674 237.069 23.4495C231.564 41.2174 208.758 64.0642 201.916 72.6011C174.359 106.668 144.73 138.436 117.146 172.11C105.747 186.027 94.6798 200.257 84.3259 215.176C82.0934 218.393 71.7574 231.253 64.5657 244.443C64.0645 245.361 63.5557 246.406 63.0708 247.495C67.3821 246.059 71.579 243.574 75.6965 240.804C92.7563 229.323 107.769 211.343 119.094 200.271C150.826 169.191 181.131 135.967 213.56 105.222C235.965 83.9792 259.337 63.8614 285.015 46.5157C299.823 36.042 340.124 9.84531 372.483 1.40067C397.768 -5.19776 419.064 -0.114693 432.147 15.6466C442.645 28.2774 443.893 46.3811 438.12 66.2129C430.056 93.9101 405.671 125.942 395.716 137.462C376.741 158.904 356.315 179.368 334.368 198.455C303.403 225.383 270.038 249.895 241.112 278.528C229.545 289.979 218.497 301.866 208.481 314.675C203.548 321.052 185.38 342.677 172.58 364.616C169.081 370.615 168.361 378.872 166.827 384.65C168.891 384.243 171.022 383.656 173.126 383.183C184.436 380.643 195.518 375.311 203.16 371.171C231.114 356.008 254.136 341.577 275.683 324.88C296.773 308.538 316.34 289.94 337.886 266.503L391.713 215.176C424.752 182.243 464.481 222.915 433.315 254.277L380.866 305.161C356.121 330.439 333.648 350.301 309.699 367.77C285.403 385.491 259.673 400.844 228.403 416.737C214.797 423.67 193.733 432.3 173.946 434.408C155.203 436.404 137.527 432.952 124.27 422.228C112.29 412.536 106.897 395.649 113.116 373.946C122.021 342.868 157.59 294.922 165.3 284.27C181.215 261.695 199.638 241.13 219.351 221.59C245.525 195.644 273.342 170.885 301.541 146.89C319.557 131.559 338.11 117.061 354.827 100.755C360.048 95.7264 370.16 85.2086 378.948 72.9012C383.957 65.8863 388.86 58.494 391.713 51.2123C392.644 48.8349 393.593 46.5889 393.922 44.3653C394.521 40.2941 390.676 41.6326 386.962 41.3296C378.933 42.1933 369.953 44.8749 361.059 48.4725C338.777 57.4857 316.949 71.2985 307.215 77.631C283.358 93.7896 261.573 112.457 240.882 132.351C208.847 163.152 179.334 196.761 148.178 228.065C133.211 243.135 111.97 268.374 88.5082 280.849C74.2656 288.423 59.1633 291.699 43.8502 288.978C24.9701 285.63 17.6409 274.243 16.6916 259.371C16.1999 251.662 18.5681 241.84 23.1218 231.776C30.8762 214.639 45.1333 195.893 47.9634 191.669C58.7117 175.626 70.1951 160.277 82.0976 145.3C107.46 113.388 134.741 83.2045 160.355 51.2148C134.982 68.2578 95.5941 103.516 64.9234 121.675C48.6037 131.337 33.6926 136.472 22.817 136.378C3.59383 136.211 -5.62635 127.036 -9.95642 115.675C-12.2196 109.736 -12.9478 102.469 -11.7159 94.7579C-9.94788 83.6965 -4.23308 71.3193 0.353962 64.2554C8.8092 51.2755 31.776 27.21 48.6335 3.90438C54.1879 -3.77467 64.9234 -14.275 61.9832 -18.1802C59.0429 -22.0854 3.57249 9.26176 3.57249 9.26176C0.364208 11.1238 -4.56944 14.3465 -9.3093 16.5044C-10.4601 17.2476 -11.7398 17.9109 -13.1536 18.4761C-16.9211 19.9815 -23.6288 20.2143 -26.0047 19.9774Z" fill="#F79444" fill-opacity="0.7"/>
</svg>
