<svg width="53" height="50" viewBox="0 0 53 50" fill="none" xmlns="http://www.w3.org/2000/svg">
<path fill-rule="evenodd" clip-rule="evenodd" d="M41.5251 0.787145C43.8557 0.554572 45.9336 2.25534 46.1661 4.58593C46.7709 10.6462 48.854 16.7416 51.6031 22.5923C52.5991 24.7121 51.6881 27.238 49.5683 28.2341C47.4485 29.2301 44.9226 28.3191 43.9266 26.1993C40.9447 19.8533 38.4608 12.7877 37.7263 5.42815C37.4938 3.09757 39.1945 1.01972 41.5251 0.787145ZM13.7219 13.9878C15.2964 12.2539 17.9785 12.1247 19.7124 13.6992C21.5657 15.3822 23.325 17.045 25.0468 18.6723C29.1035 22.5064 32.9519 26.1436 37.3306 29.3844C39.2132 30.7778 39.6099 33.4335 38.2165 35.3161C36.8231 37.1987 34.1674 37.5954 32.2848 36.202C27.4729 32.6406 23.0412 28.4532 18.8326 24.4766C17.1945 22.9288 15.5902 21.4129 14.0104 19.9783C12.2765 18.4037 12.1473 15.7217 13.7219 13.9878ZM1.09156 37.2479C1.86956 35.0388 4.29113 33.8786 6.5003 34.6566C13.1588 37.0014 19.785 39.2422 26.4922 41.292C28.7321 41.9766 29.993 44.3473 29.3084 46.5872C28.6239 48.8271 26.2531 50.0879 24.0132 49.4034C17.151 47.3062 10.4033 45.0233 3.68294 42.6567C1.47377 41.8787 0.313568 39.4571 1.09156 37.2479Z" fill="#1951E7"/>
</svg>
